<svg version="1.1" id="Layer_1" xmlns="http://www.w3.org/2000/svg" xmlns:xlink="http://www.w3.org/1999/xlink" x="0px" y="0px"
	 width="100%" viewBox="0 0 1254 1254" enable-background="new 0 0 1254 1254" xml:space="preserve">
<path fill="#010100" opacity="1.000000" stroke="none" 
	d="
M676.000000,1255.000000 
	C450.666656,1255.000000 225.833328,1255.000000 1.000000,1255.000000 
	C1.000000,837.000000 1.000000,419.000000 1.000000,1.000000 
	C419.000000,1.000000 837.000000,1.000000 1255.000000,1.000000 
	C1255.000000,419.000000 1255.000000,837.000000 1255.000000,1255.000000 
	C1062.166626,1255.000000 869.333313,1255.000000 676.000000,1255.000000 
M408.060303,626.500000 
	C408.060303,660.579712 408.060303,694.659424 408.060303,728.662964 
	C462.171661,728.662964 515.549133,728.662964 568.822937,728.662964 
	C568.822937,715.657349 568.822937,703.077271 568.822937,690.021851 
	C527.761414,690.021851 487.045807,690.021851 446.287964,690.021851 
	C446.287964,672.793457 446.287964,656.047913 446.287964,638.721924 
	C481.274048,638.721924 515.982483,638.721924 550.672974,638.721924 
	C550.672974,625.547668 550.672974,612.957886 550.672974,599.829346 
	C515.664917,599.829346 480.952576,599.829346 446.439880,599.829346 
	C446.439880,583.559692 446.439880,567.835815 446.439880,551.670227 
	C485.919403,551.670227 524.986938,551.670227 564.150269,551.670227 
	C564.150269,538.640808 564.150269,526.064880 564.150269,513.430664 
	C512.002258,513.430664 460.241058,513.430664 408.064728,513.430664 
	C408.064728,550.945740 408.064728,588.222839 408.060303,626.500000 
M937.064514,663.303955 
	C932.827332,653.343079 928.569641,643.390930 924.356689,633.419800 
	C907.984375,594.669922 891.593872,555.927612 875.328857,517.132690 
	C874.125610,514.262756 872.729736,513.113037 869.527161,513.177734 
	C859.535522,513.379578 849.527466,513.458923 839.545288,513.076294 
	C835.921753,512.937439 834.673218,514.524231 833.454407,517.332214 
	C805.592651,581.521667 777.677307,645.687927 749.778687,709.861450 
	C747.085266,716.057007 744.435791,722.271729 741.549072,728.981506 
	C754.759399,728.981506 767.242065,728.847961 779.718384,729.072510 
	C782.959839,729.130798 784.437195,727.929138 785.626526,725.153442 
	C791.451843,711.558105 797.514038,698.063782 803.277344,684.442749 
	C804.571655,681.383728 806.193970,680.289734 809.566101,680.304443 
	C839.054443,680.433167 868.543884,680.414795 898.032227,680.277771 
	C901.218201,680.262939 902.723511,681.330200 903.915161,684.212463 
	C909.573608,697.898987 915.406311,711.514404 921.309387,725.097595 
	C921.951294,726.574646 923.425049,728.770874 924.548889,728.792847 
	C937.790588,729.051636 951.039185,728.959106 965.016663,728.959106 
	C955.593323,706.849426 946.465088,685.432007 937.064514,663.303955 
M276.350342,655.638977 
	C292.058929,677.564331 307.969177,699.349854 323.336670,721.511719 
	C327.257874,727.166565 331.221252,729.882263 338.275970,729.180908 
	C345.700867,728.442688 353.253632,728.986755 360.750519,728.977661 
	C366.166351,728.971130 371.582153,728.976379 378.127655,728.976379 
	C359.055786,702.554260 340.622498,677.016785 322.062012,651.303101 
	C323.552795,650.797974 324.645142,650.402649 325.752747,650.056152 
	C360.307129,639.249512 380.854187,604.698242 373.943298,569.013062 
	C367.745514,537.010315 340.344940,513.271606 309.305756,513.218323 
	C270.154877,513.151062 231.003815,513.227722 191.852829,513.242188 
	C190.066315,513.242859 188.279800,513.242249 186.469452,513.242249 
	C186.469452,526.500610 186.469452,539.194702 186.469452,552.200500 
	C190.360886,552.200500 193.848541,552.199585 197.336212,552.200623 
	C232.655365,552.210815 267.974731,552.150513 303.293579,552.262634 
	C320.041840,552.315796 332.262421,562.265320 335.030853,577.682678 
	C338.578949,597.442017 323.929626,614.740601 303.272552,614.809998 
	C266.120972,614.934875 228.968674,614.851807 191.816666,614.855591 
	C189.913651,614.855774 188.010620,614.855591 186.315002,614.855591 
	C186.315002,628.114136 186.315002,640.532288 186.315002,653.306946 
	C188.585358,653.306946 190.570038,653.306702 192.554718,653.306946 
	C218.377762,653.309998 244.200943,653.277954 270.023529,653.386047 
	C271.989014,653.394226 273.950348,654.395996 276.350342,655.638977 
M586.078552,524.533203 
	C596.417480,549.738647 606.824341,574.916565 617.080078,600.155823 
	C633.901001,641.551880 650.655457,682.975098 667.328735,724.430786 
	C668.673889,727.775391 670.235962,729.308105 674.150940,729.151245 
	C683.467224,728.778015 692.812439,728.817261 702.135315,729.074585 
	C705.619690,729.170776 706.986511,727.851379 708.229431,724.788391 
	C734.459351,660.148621 760.808594,595.557190 787.127136,530.953369 
	C789.473328,525.194214 791.769836,519.414856 794.244385,513.259521 
	C780.853882,513.259521 768.193970,513.387390 755.539917,513.172180 
	C752.261169,513.116455 750.906433,514.385315 749.790405,517.217407 
	C733.428040,558.740173 716.976685,600.227966 700.539612,641.721375 
	C696.396057,652.181396 692.228271,662.631836 687.841919,673.664429 
	C676.796387,645.821472 666.013123,618.707214 655.283203,591.571838 
	C645.513489,566.864929 635.841309,542.119202 625.976562,517.450439 
	C625.306946,515.776001 623.408203,513.414734 622.034485,513.382935 
	C608.764893,513.075256 595.485229,513.198364 581.458313,513.198364 
	C583.094360,517.153687 584.468323,520.475281 586.078552,524.533203 
M1088.709717,566.110901 
	C1094.121216,587.290649 1096.074951,608.752075 1093.394775,630.490051 
	C1088.875000,667.149658 1074.665527,699.561096 1050.294678,727.427429 
	C1045.791016,732.577209 1046.134766,739.075134 1051.090942,743.364868 
	C1056.228760,747.811768 1063.143921,746.924072 1068.050781,740.784302 
	C1116.026245,680.755554 1127.982666,614.246643 1103.363403,541.413696 
	C1096.333862,520.617859 1085.489746,501.729004 1072.067261,484.363190 
	C1067.436646,478.372101 1060.333618,477.476105 1054.952515,481.915222 
	C1050.103882,485.915070 1049.540283,492.689545 1053.890259,497.936035 
	C1070.404907,517.853760 1081.420288,540.565247 1088.709717,566.110901 
M1007.944702,690.761108 
	C1006.184143,696.978882 1007.874573,701.676575 1012.863953,704.431641 
	C1017.883057,707.203247 1023.617188,706.062439 1027.534668,701.039856 
	C1031.005859,696.589539 1034.379272,692.001587 1037.240601,687.147034 
	C1054.201416,658.371521 1062.144165,627.535034 1058.033691,594.022461 
	C1054.930542,568.723877 1045.409546,545.958130 1030.728149,525.294678 
	C1026.473022,519.305725 1019.357300,518.418274 1014.109192,522.646729 
	C1008.937927,526.813232 1008.707458,533.077393 1013.071350,539.022217 
	C1036.020142,570.284546 1043.032837,604.746338 1033.315796,642.392334 
	C1028.715576,660.214661 1020.114441,676.013611 1007.944702,690.761108 
M981.383789,665.330811 
	C984.086182,662.494263 987.393311,660.027039 989.389587,656.759155 
	C999.884033,639.580261 1004.033386,620.843750 1001.763367,600.820618 
	C1000.261047,587.569641 995.830811,575.248047 988.737244,563.959473 
	C984.913025,557.873596 977.761841,556.325623 972.261841,560.053345 
	C966.812744,563.746582 965.873047,570.484009 970.117920,576.246582 
	C976.310364,584.653137 979.626038,594.136108 980.519714,604.442444 
	C981.853760,619.827393 979.320618,634.347473 969.778198,646.973938 
	C965.782654,652.260864 964.816040,656.286743 967.241882,660.635986 
	C969.760254,665.151245 973.777588,666.664001 981.383789,665.330811 
z"/>
<path fill="#FBFBFB" opacity="1.000000" stroke="none" 
	d="
M408.062500,626.000000 
	C408.064728,588.222839 408.064728,550.945740 408.064728,513.430664 
	C460.241058,513.430664 512.002258,513.430664 564.150269,513.430664 
	C564.150269,526.064880 564.150269,538.640808 564.150269,551.670227 
	C524.986938,551.670227 485.919403,551.670227 446.439880,551.670227 
	C446.439880,567.835815 446.439880,583.559692 446.439880,599.829346 
	C480.952576,599.829346 515.664917,599.829346 550.672974,599.829346 
	C550.672974,612.957886 550.672974,625.547668 550.672974,638.721924 
	C515.982483,638.721924 481.274048,638.721924 446.287964,638.721924 
	C446.287964,656.047913 446.287964,672.793457 446.287964,690.021851 
	C487.045807,690.021851 527.761414,690.021851 568.822937,690.021851 
	C568.822937,703.077271 568.822937,715.657349 568.822937,728.662964 
	C515.549133,728.662964 462.171661,728.662964 408.060303,728.662964 
	C408.060303,694.659424 408.060303,660.579712 408.062500,626.000000 
z"/>
<path fill="#FBFBFC" opacity="1.000000" stroke="none" 
	d="
M937.200684,663.659302 
	C946.465088,685.432007 955.593323,706.849426 965.016663,728.959106 
	C951.039185,728.959106 937.790588,729.051636 924.548889,728.792847 
	C923.425049,728.770874 921.951294,726.574646 921.309387,725.097595 
	C915.406311,711.514404 909.573608,697.898987 903.915161,684.212463 
	C902.723511,681.330200 901.218201,680.262939 898.032227,680.277771 
	C868.543884,680.414795 839.054443,680.433167 809.566101,680.304443 
	C806.193970,680.289734 804.571655,681.383728 803.277344,684.442749 
	C797.514038,698.063782 791.451843,711.558105 785.626526,725.153442 
	C784.437195,727.929138 782.959839,729.130798 779.718384,729.072510 
	C767.242065,728.847961 754.759399,728.981506 741.549072,728.981506 
	C744.435791,722.271729 747.085266,716.057007 749.778687,709.861450 
	C777.677307,645.687927 805.592651,581.521667 833.454407,517.332214 
	C834.673218,514.524231 835.921753,512.937439 839.545288,513.076294 
	C849.527466,513.458923 859.535522,513.379578 869.527161,513.177734 
	C872.729736,513.113037 874.125610,514.262756 875.328857,517.132690 
	C891.593872,555.927612 907.984375,594.669922 924.356689,633.419800 
	C928.569641,643.390930 932.827332,653.343079 937.200684,663.659302 
M882.628052,632.925659 
	C873.263794,610.937439 863.899536,588.949280 854.238098,566.263184 
	C843.126648,591.848450 832.345032,616.674255 821.327698,642.042908 
	C832.875427,642.042908 843.362122,642.042908 853.848816,642.042908 
	C864.443481,642.042908 875.038147,642.042908 886.120361,642.042908 
	C884.919800,638.847473 883.938110,636.234741 882.628052,632.925659 
z"/>
<path fill="#FBFBFB" opacity="1.000000" stroke="none" 
	d="
M276.131958,655.287415 
	C273.950348,654.395996 271.989014,653.394226 270.023529,653.386047 
	C244.200943,653.277954 218.377762,653.309998 192.554718,653.306946 
	C190.570038,653.306702 188.585358,653.306946 186.315002,653.306946 
	C186.315002,640.532288 186.315002,628.114136 186.315002,614.855591 
	C188.010620,614.855591 189.913651,614.855774 191.816666,614.855591 
	C228.968674,614.851807 266.120972,614.934875 303.272552,614.809998 
	C323.929626,614.740601 338.578949,597.442017 335.030853,577.682678 
	C332.262421,562.265320 320.041840,552.315796 303.293579,552.262634 
	C267.974731,552.150513 232.655365,552.210815 197.336212,552.200623 
	C193.848541,552.199585 190.360886,552.200500 186.469452,552.200500 
	C186.469452,539.194702 186.469452,526.500610 186.469452,513.242249 
	C188.279800,513.242249 190.066315,513.242859 191.852829,513.242188 
	C231.003815,513.227722 270.154877,513.151062 309.305756,513.218323 
	C340.344940,513.271606 367.745514,537.010315 373.943298,569.013062 
	C380.854187,604.698242 360.307129,639.249512 325.752747,650.056152 
	C324.645142,650.402649 323.552795,650.797974 322.062012,651.303101 
	C340.622498,677.016785 359.055786,702.554260 378.127655,728.976379 
	C371.582153,728.976379 366.166351,728.971130 360.750519,728.977661 
	C353.253632,728.986755 345.700867,728.442688 338.275970,729.180908 
	C331.221252,729.882263 327.257874,727.166565 323.336670,721.511719 
	C307.969177,699.349854 292.058929,677.564331 276.131958,655.287415 
z"/>
<path fill="#FBFAFB" opacity="1.000000" stroke="none" 
	d="
M585.960388,524.165039 
	C584.468323,520.475281 583.094360,517.153687 581.458313,513.198364 
	C595.485229,513.198364 608.764893,513.075256 622.034485,513.382935 
	C623.408203,513.414734 625.306946,515.776001 625.976562,517.450439 
	C635.841309,542.119202 645.513489,566.864929 655.283203,591.571838 
	C666.013123,618.707214 676.796387,645.821472 687.841919,673.664429 
	C692.228271,662.631836 696.396057,652.181396 700.539612,641.721375 
	C716.976685,600.227966 733.428040,558.740173 749.790405,517.217407 
	C750.906433,514.385315 752.261169,513.116455 755.539917,513.172180 
	C768.193970,513.387390 780.853882,513.259521 794.244385,513.259521 
	C791.769836,519.414856 789.473328,525.194214 787.127136,530.953369 
	C760.808594,595.557190 734.459351,660.148621 708.229431,724.788391 
	C706.986511,727.851379 705.619690,729.170776 702.135315,729.074585 
	C692.812439,728.817261 683.467224,728.778015 674.150940,729.151245 
	C670.235962,729.308105 668.673889,727.775391 667.328735,724.430786 
	C650.655457,682.975098 633.901001,641.551880 617.080078,600.155823 
	C606.824341,574.916565 596.417480,549.738647 585.960388,524.165039 
z"/>
<path fill="#F8F8F8" opacity="1.000000" stroke="none" 
	d="
M1088.562744,565.728760 
	C1081.420288,540.565247 1070.404907,517.853760 1053.890259,497.936035 
	C1049.540283,492.689545 1050.103882,485.915070 1054.952515,481.915222 
	C1060.333618,477.476105 1067.436646,478.372101 1072.067261,484.363190 
	C1085.489746,501.729004 1096.333862,520.617859 1103.363403,541.413696 
	C1127.982666,614.246643 1116.026245,680.755554 1068.050781,740.784302 
	C1063.143921,746.924072 1056.228760,747.811768 1051.090942,743.364868 
	C1046.134766,739.075134 1045.791016,732.577209 1050.294678,727.427429 
	C1074.665527,699.561096 1088.875000,667.149658 1093.394775,630.490051 
	C1096.074951,608.752075 1094.121216,587.290649 1088.562744,565.728760 
z"/>
<path fill="#F9F9F9" opacity="1.000000" stroke="none" 
	d="
M1008.091736,690.404907 
	C1020.114441,676.013611 1028.715576,660.214661 1033.315796,642.392334 
	C1043.032837,604.746338 1036.020142,570.284546 1013.071350,539.022217 
	C1008.707458,533.077393 1008.937927,526.813232 1014.109192,522.646729 
	C1019.357300,518.418274 1026.473022,519.305725 1030.728149,525.294678 
	C1045.409546,545.958130 1054.930542,568.723877 1058.033691,594.022461 
	C1062.144165,627.535034 1054.201416,658.371521 1037.240601,687.147034 
	C1034.379272,692.001587 1031.005859,696.589539 1027.534668,701.039856 
	C1023.617188,706.062439 1017.883057,707.203247 1012.863953,704.431641 
	C1007.874573,701.676575 1006.184143,696.978882 1008.091736,690.404907 
z"/>
<path fill="#F8F8F9" opacity="1.000000" stroke="none" 
	d="
M981.018127,665.508423 
	C973.777588,666.664001 969.760254,665.151245 967.241882,660.635986 
	C964.816040,656.286743 965.782654,652.260864 969.778198,646.973938 
	C979.320618,634.347473 981.853760,619.827393 980.519714,604.442444 
	C979.626038,594.136108 976.310364,584.653137 970.117920,576.246582 
	C965.873047,570.484009 966.812744,563.746582 972.261841,560.053345 
	C977.761841,556.325623 984.913025,557.873596 988.737244,563.959473 
	C995.830811,575.248047 1000.261047,587.569641 1001.763367,600.820618 
	C1004.033386,620.843750 999.884033,639.580261 989.389587,656.759155 
	C987.393311,660.027039 984.086182,662.494263 981.018127,665.508423 
z"/>
<path fill="#050504" opacity="1.000000" stroke="none" 
	d="
M882.792236,633.273804 
	C883.938110,636.234741 884.919800,638.847473 886.120361,642.042908 
	C875.038147,642.042908 864.443481,642.042908 853.848816,642.042908 
	C843.362122,642.042908 832.875427,642.042908 821.327698,642.042908 
	C832.345032,616.674255 843.126648,591.848450 854.238098,566.263184 
	C863.899536,588.949280 873.263794,610.937439 882.792236,633.273804 
z"/>
</svg>